Coordinates
version=1
nRows=7
nColumns=42
inDegrees=yes

Units are S.I. units (second, meters, Newtons, ...)
If the header above contains a line with 'inDegrees', this indicates whether rotational values are in degrees (yes) or radians (no).

endheader
time	pelvis_tilt	pelvis_list	pelvis_rotation	pelvis_tx	pelvis_ty	pelvis_tz	hip_flexion_r	hip_adduction_r	hip_rotation_r	knee_angle_r	knee_adduction_r	knee_angle_r_beta	ankle_angle_r	subtalar_angle_r	mtp_angle_r	hip_flexion_l	hip_adduction_l	hip_rotation_l	knee_angle_l	knee_adduction_l	knee_angle_l_beta	ankle_angle_l	subtalar_angle_l	mtp_angle_l	lumbar_extension	lumbar_bending	lumbar_rotation	arm_flex_r	arm_add_r	arm_rot_r	elbow_flex_r	pro_sup_r	wrist_flex_r	wrist_dev_r	arm_flex_l	arm_add_l	arm_rot_l	elbow_flex_l	pro_sup_l	wrist_flex_l	wrist_dev_l
      3.00000000	      4.38032022	     -0.46588063	      3.25725427	     -0.19417773	      0.86815664	     -0.21676969	     10.07891592	     -6.28298742	     -0.82082086	     69.56934471	      2.34611120	      1.21421412	      3.09593583	      0.36615149	     -7.51805960	     15.45878579	      3.06605873	    -10.26019957	     37.26138703	     -6.14226475	      0.65033389	     19.78643564	     20.80734317	     -7.51805960	    -25.84225026	      3.44048093	     -2.71164957	      2.69379556	    -12.34548607	    -13.66939159	     50.92413148	     90.00000001	      0.00000000	      0.00000000	     16.09634446	    -11.01844458	     26.75654894	     48.39121781	     90.00000001	      0.00000000	      0.00000000
      3.01000000	      4.67640066	     -0.53829258	      3.34354511	     -0.19099758	      0.86786504	     -0.21791946	     10.96584648	     -6.11441519	     -0.64635630	     70.81618186	      2.15509556	      1.23597554	      3.50716279	      0.18369430	     -7.51776552	     15.05003504	      2.96969881	    -10.25501855	     37.62008967	     -6.07194820	      0.65659443	     19.95488730	     20.75974930	     -7.51776552	    -26.33239342	      3.55925156	     -2.91396156	      2.64989595	    -12.40997415	    -13.77294607	     50.79514564	     90.00000001	      0.00000000	      0.00000000	     16.28065529	    -11.14769495	     26.62366153	     48.33430302	     90.00000001	      0.00000000	      0.00000000
      3.02000000	      4.41667869	     -0.42556322	      3.21496750	     -0.18787553	      0.86650252	     -0.21869442	     12.66726527	     -6.12156499	     -0.27375400	     72.28466069	      1.89293322	      1.26160533	      4.71830516	     -0.58410531	     -7.51731065	     15.30874809	      3.10453084	    -10.65543982	     38.06124346	     -6.24616634	      0.66429402	     20.60219025	     21.05473734	     -7.51731065	    -26.14020541	      3.36014964	     -2.97561771	      2.53127871	    -12.30655607	    -14.23489583	     50.30546830	     90.00000001	      0.00000000	      0.00000000	     16.34998608	    -11.26812965	     26.53670708	     48.10065715	     90.00000001	      0.00000000	      0.00000000
      3.03000000	      4.70408227	     -0.53996217	      3.36779160	     -0.18475161	      0.86635739	     -0.21984260	     13.50294795	     -5.90834283	     -0.23515525	     73.05408050	      1.75745877	      1.27503424	      4.91594365	     -0.46717723	     -7.51709451	     14.88441764	      3.02766630	    -10.55437995	     38.31765328	     -6.26550016	      0.66876921	     20.55169510	     20.94379263	     -7.51709451	    -26.59706794	      3.56819246	     -3.21785290	      2.41553749	    -12.38645429	    -14.28986148	     50.24672452	     90.00000001	      0.00000000	      0.00000000	     16.47772968	    -11.38792001	     26.41439798	     48.11204041	     90.00000001	      0.00000000	      0.00000000
      3.04000000	      4.52324879	     -0.30845713	      3.04392423	     -0.18179310	      0.86531106	     -0.22014757	     15.17470731	     -5.95559813	     -0.51204298	     74.11295210	      0.75940900	      1.29351503	      6.48647699	     -0.89793257	     -7.51681282	     14.95050493	      3.16541718	    -10.86139306	     38.63634334	     -6.10894935	      0.67433140	     21.29960821	     21.10824634	     -7.51681282	    -26.54083199	      3.15244783	     -3.12089620	      2.37583031	    -12.25209143	    -14.61030360	     49.69231404	     90.00000001	      0.00000000	      0.00000000	     16.61742904	    -11.47338508	     26.30360941	     47.83374181	     90.00000001	      0.00000000	      0.00000000
      3.05000000	      4.35876570	     -0.23852584	      3.00009272	     -0.17889093	      0.86442396	     -0.22089251	     16.67813729	     -5.91674154	     -0.95485371	     74.75805430	      0.00754250	      1.30477419	      7.47416427	     -0.71171622	     -7.51647229	     15.05113981	      3.28437293	    -10.97840592	     38.94253540	     -6.18704782	      0.67967546	     21.64914747	     21.20704658	     -7.51647229	    -26.47824155	      3.05410163	     -3.23557128	      2.28777269	    -12.16569186	    -14.99093745	     49.27494399	     90.00000001	      0.00000000	      0.00000000	     16.70591489	    -11.56212678	     26.17756105	     47.66230970	     90.00000001	      0.00000000	      0.00000000
      3.06000000	      4.38335861	     -0.20949086	      2.92843999	     -0.17595292	      0.86399670	     -0.22159483	     17.89532378	     -5.85137304	     -1.40584478	     75.08280311	     -0.63197368	      1.31044213	      8.09595602	     -0.43157767	     -7.51620752	     14.85885636	      3.33911047	    -10.92809771	     39.12663686	     -6.13503966	      0.68288864	     21.82665462	     21.18016776	     -7.51620752	    -26.63581089	      3.03044803	     -3.31107710	      2.20080177	    -12.15412965	    -15.20342536	     49.01744236	     90.00000001	      0.00000000	      0.00000000	     16.81429753	    -11.68202673	     26.04203030	     47.58130505	     90.00000001	      0.00000000	      0.00000000
